M48
; DRILL file KiCad 10.0.3 date 2026-06-09T14:52:35
; FORMAT={-:-/ absolute / metric / decimal}
; #@! TF.CreationDate,2026-06-09T14:52:35+09:00
; #@! TF.GenerationSoftware,Kicad,Pcbnew,10.0.3
; #@! TF.FileFunction,Plated,1,2,PTH
FMAT,2
METRIC
; #@! TA.AperFunction,Plated,PTH,ComponentDrill
T1C0.800
; #@! TA.AperFunction,Plated,PTH,ComponentDrill
T2C0.889
; #@! TA.AperFunction,Plated,PTH,ComponentDrill
T3C1.000
; #@! TA.AperFunction,Plated,PTH,ComponentDrill
T4C1.500
%
G90
G05
T1
X144.78Y-76.2
X144.78Y-95.25
X144.78Y-114.3
X152.4Y-76.2
X152.4Y-95.25
X152.4Y-114.3
X163.83Y-76.2
X163.83Y-95.25
X163.83Y-114.3
X171.45Y-76.2
X171.45Y-95.25
X171.45Y-114.3
X182.88Y-76.2
X182.88Y-95.25
X182.88Y-114.3
X190.5Y-76.2
X190.5Y-95.25
X190.5Y-114.3
T2
X163.76Y-49.0
X163.76Y-51.54
X163.76Y-54.08
X163.76Y-56.62
X163.76Y-59.16
X163.76Y-61.7
X163.76Y-64.24
X179.0Y-49.0
X179.0Y-51.54
X179.0Y-54.08
X179.0Y-56.62
X179.0Y-59.16
X179.0Y-61.7
X179.0Y-64.24
T3
X148.92Y-56.5
X151.46Y-56.5
X154.0Y-56.5
X156.54Y-56.5
X182.75Y-56.5
X182.75Y-59.0
X182.75Y-61.5
X197.25Y-56.5
X197.25Y-61.5
T4
G00X189.6Y-53.4
M15
G01X190.9Y-53.4
M16
G05
G00X189.6Y-64.6
M15
G01X190.9Y-64.6
M16
G05
M30
