M48
; DRILL file KiCad 10.0.3 date 2026-06-09T14:52:35
; FORMAT={-:-/ absolute / metric / decimal}
; #@! TF.CreationDate,2026-06-09T14:52:35+09:00
; #@! TF.GenerationSoftware,Kicad,Pcbnew,10.0.3
; #@! TF.FileFunction,NonPlated,1,2,NPTH
FMAT,2
METRIC
; #@! TA.AperFunction,NonPlated,NPTH,ComponentDrill
T1C1.702
; #@! TA.AperFunction,NonPlated,NPTH,ComponentDrill
T2C3.000
; #@! TA.AperFunction,NonPlated,NPTH,ComponentDrill
T3C3.988
%
G90
G05
T1
X147.32Y-76.2
X147.32Y-95.25
X147.32Y-114.3
X157.48Y-76.2
X157.48Y-95.25
X157.48Y-114.3
X166.37Y-76.2
X166.37Y-95.25
X166.37Y-114.3
X176.53Y-76.2
X176.53Y-95.25
X176.53Y-114.3
X185.42Y-76.2
X185.42Y-95.25
X185.42Y-114.3
X195.58Y-76.2
X195.58Y-95.25
X195.58Y-114.3
T2
X148.59Y-73.66
X148.59Y-92.71
X148.59Y-111.76
X154.94Y-71.12
X154.94Y-90.17
X154.94Y-109.22
X167.64Y-73.66
X167.64Y-92.71
X167.64Y-111.76
X173.99Y-71.12
X173.99Y-90.17
X173.99Y-109.22
X186.69Y-73.66
X186.69Y-92.71
X186.69Y-111.76
X193.04Y-71.12
X193.04Y-90.17
X193.04Y-109.22
T3
X152.4Y-76.2
X152.4Y-95.25
X152.4Y-114.3
X171.45Y-76.2
X171.45Y-95.25
X171.45Y-114.3
X190.5Y-76.2
X190.5Y-95.25
X190.5Y-114.3
M30
