%TF.GenerationSoftware,KiCad,Pcbnew,10.0.3*%
%TF.CreationDate,2026-06-09T14:52:23+09:00*%
%TF.ProjectId,hackpad,6861636b-7061-4642-9e6b-696361645f70,rev?*%
%TF.SameCoordinates,Original*%
%TF.FileFunction,Legend,Top*%
%TF.FilePolarity,Positive*%
%FSLAX46Y46*%
G04 Gerber Fmt 4.6, Leading zero omitted, Abs format (unit mm)*
G04 Created by KiCad (PCBNEW 10.0.3) date 2026-06-09 14:52:23*
%MOMM*%
%LPD*%
G01*
G04 APERTURE LIST*
%ADD10C,0.101600*%
%ADD11C,0.150000*%
%ADD12C,0.504000*%
%ADD13C,0.127000*%
%ADD14C,0.100000*%
%ADD15C,0.120000*%
G04 APERTURE END LIST*
D10*
X160783479Y-57228809D02*
X161297526Y-57228809D01*
X161297526Y-57228809D02*
X161358002Y-57198571D01*
X161358002Y-57198571D02*
X161388241Y-57168333D01*
X161388241Y-57168333D02*
X161418479Y-57107857D01*
X161418479Y-57107857D02*
X161418479Y-56986904D01*
X161418479Y-56986904D02*
X161388241Y-56926428D01*
X161388241Y-56926428D02*
X161358002Y-56896190D01*
X161358002Y-56896190D02*
X161297526Y-56865952D01*
X161297526Y-56865952D02*
X160783479Y-56865952D01*
X161418479Y-56230952D02*
X161418479Y-56593809D01*
X161418479Y-56412381D02*
X160783479Y-56412381D01*
X160783479Y-56412381D02*
X160874193Y-56472857D01*
X160874193Y-56472857D02*
X160934669Y-56533333D01*
X160934669Y-56533333D02*
X160964907Y-56593809D01*
D11*
X183740476Y-52207200D02*
X183883333Y-52254819D01*
X183883333Y-52254819D02*
X184121428Y-52254819D01*
X184121428Y-52254819D02*
X184216666Y-52207200D01*
X184216666Y-52207200D02*
X184264285Y-52159580D01*
X184264285Y-52159580D02*
X184311904Y-52064342D01*
X184311904Y-52064342D02*
X184311904Y-51969104D01*
X184311904Y-51969104D02*
X184264285Y-51873866D01*
X184264285Y-51873866D02*
X184216666Y-51826247D01*
X184216666Y-51826247D02*
X184121428Y-51778628D01*
X184121428Y-51778628D02*
X183930952Y-51731009D01*
X183930952Y-51731009D02*
X183835714Y-51683390D01*
X183835714Y-51683390D02*
X183788095Y-51635771D01*
X183788095Y-51635771D02*
X183740476Y-51540533D01*
X183740476Y-51540533D02*
X183740476Y-51445295D01*
X183740476Y-51445295D02*
X183788095Y-51350057D01*
X183788095Y-51350057D02*
X183835714Y-51302438D01*
X183835714Y-51302438D02*
X183930952Y-51254819D01*
X183930952Y-51254819D02*
X184169047Y-51254819D01*
X184169047Y-51254819D02*
X184311904Y-51302438D01*
X184645238Y-51254819D02*
X184883333Y-52254819D01*
X184883333Y-52254819D02*
X185073809Y-51540533D01*
X185073809Y-51540533D02*
X185264285Y-52254819D01*
X185264285Y-52254819D02*
X185502381Y-51254819D01*
X186407142Y-52254819D02*
X185835714Y-52254819D01*
X186121428Y-52254819D02*
X186121428Y-51254819D01*
X186121428Y-51254819D02*
X186026190Y-51397676D01*
X186026190Y-51397676D02*
X185930952Y-51492914D01*
X185930952Y-51492914D02*
X185835714Y-51540533D01*
X187026190Y-51254819D02*
X187121428Y-51254819D01*
X187121428Y-51254819D02*
X187216666Y-51302438D01*
X187216666Y-51302438D02*
X187264285Y-51350057D01*
X187264285Y-51350057D02*
X187311904Y-51445295D01*
X187311904Y-51445295D02*
X187359523Y-51635771D01*
X187359523Y-51635771D02*
X187359523Y-51873866D01*
X187359523Y-51873866D02*
X187311904Y-52064342D01*
X187311904Y-52064342D02*
X187264285Y-52159580D01*
X187264285Y-52159580D02*
X187216666Y-52207200D01*
X187216666Y-52207200D02*
X187121428Y-52254819D01*
X187121428Y-52254819D02*
X187026190Y-52254819D01*
X187026190Y-52254819D02*
X186930952Y-52207200D01*
X186930952Y-52207200D02*
X186883333Y-52159580D01*
X186883333Y-52159580D02*
X186835714Y-52064342D01*
X186835714Y-52064342D02*
X186788095Y-51873866D01*
X186788095Y-51873866D02*
X186788095Y-51635771D01*
X186788095Y-51635771D02*
X186835714Y-51445295D01*
X186835714Y-51445295D02*
X186883333Y-51350057D01*
X186883333Y-51350057D02*
X186930952Y-51302438D01*
X186930952Y-51302438D02*
X187026190Y-51254819D01*
X147851905Y-74534819D02*
X147851905Y-73534819D01*
X147851905Y-73534819D02*
X148090000Y-73534819D01*
X148090000Y-73534819D02*
X148232857Y-73582438D01*
X148232857Y-73582438D02*
X148328095Y-73677676D01*
X148328095Y-73677676D02*
X148375714Y-73772914D01*
X148375714Y-73772914D02*
X148423333Y-73963390D01*
X148423333Y-73963390D02*
X148423333Y-74106247D01*
X148423333Y-74106247D02*
X148375714Y-74296723D01*
X148375714Y-74296723D02*
X148328095Y-74391961D01*
X148328095Y-74391961D02*
X148232857Y-74487200D01*
X148232857Y-74487200D02*
X148090000Y-74534819D01*
X148090000Y-74534819D02*
X147851905Y-74534819D01*
X149375714Y-74534819D02*
X148804286Y-74534819D01*
X149090000Y-74534819D02*
X149090000Y-73534819D01*
X149090000Y-73534819D02*
X148994762Y-73677676D01*
X148994762Y-73677676D02*
X148899524Y-73772914D01*
X148899524Y-73772914D02*
X148804286Y-73820533D01*
X144518095Y-74854819D02*
X144518095Y-73854819D01*
X145089523Y-74854819D02*
X144660952Y-74283390D01*
X145089523Y-73854819D02*
X144518095Y-74426247D01*
X147851905Y-112634819D02*
X147851905Y-111634819D01*
X147851905Y-111634819D02*
X148090000Y-111634819D01*
X148090000Y-111634819D02*
X148232857Y-111682438D01*
X148232857Y-111682438D02*
X148328095Y-111777676D01*
X148328095Y-111777676D02*
X148375714Y-111872914D01*
X148375714Y-111872914D02*
X148423333Y-112063390D01*
X148423333Y-112063390D02*
X148423333Y-112206247D01*
X148423333Y-112206247D02*
X148375714Y-112396723D01*
X148375714Y-112396723D02*
X148328095Y-112491961D01*
X148328095Y-112491961D02*
X148232857Y-112587200D01*
X148232857Y-112587200D02*
X148090000Y-112634819D01*
X148090000Y-112634819D02*
X147851905Y-112634819D01*
X148756667Y-111634819D02*
X149423333Y-111634819D01*
X149423333Y-111634819D02*
X148994762Y-112634819D01*
X144518095Y-112954819D02*
X144518095Y-111954819D01*
X145089523Y-112954819D02*
X144660952Y-112383390D01*
X145089523Y-111954819D02*
X144518095Y-112526247D01*
X185951905Y-93584819D02*
X185951905Y-92584819D01*
X185951905Y-92584819D02*
X186190000Y-92584819D01*
X186190000Y-92584819D02*
X186332857Y-92632438D01*
X186332857Y-92632438D02*
X186428095Y-92727676D01*
X186428095Y-92727676D02*
X186475714Y-92822914D01*
X186475714Y-92822914D02*
X186523333Y-93013390D01*
X186523333Y-93013390D02*
X186523333Y-93156247D01*
X186523333Y-93156247D02*
X186475714Y-93346723D01*
X186475714Y-93346723D02*
X186428095Y-93441961D01*
X186428095Y-93441961D02*
X186332857Y-93537200D01*
X186332857Y-93537200D02*
X186190000Y-93584819D01*
X186190000Y-93584819D02*
X185951905Y-93584819D01*
X187380476Y-92584819D02*
X187190000Y-92584819D01*
X187190000Y-92584819D02*
X187094762Y-92632438D01*
X187094762Y-92632438D02*
X187047143Y-92680057D01*
X187047143Y-92680057D02*
X186951905Y-92822914D01*
X186951905Y-92822914D02*
X186904286Y-93013390D01*
X186904286Y-93013390D02*
X186904286Y-93394342D01*
X186904286Y-93394342D02*
X186951905Y-93489580D01*
X186951905Y-93489580D02*
X186999524Y-93537200D01*
X186999524Y-93537200D02*
X187094762Y-93584819D01*
X187094762Y-93584819D02*
X187285238Y-93584819D01*
X187285238Y-93584819D02*
X187380476Y-93537200D01*
X187380476Y-93537200D02*
X187428095Y-93489580D01*
X187428095Y-93489580D02*
X187475714Y-93394342D01*
X187475714Y-93394342D02*
X187475714Y-93156247D01*
X187475714Y-93156247D02*
X187428095Y-93061009D01*
X187428095Y-93061009D02*
X187380476Y-93013390D01*
X187380476Y-93013390D02*
X187285238Y-92965771D01*
X187285238Y-92965771D02*
X187094762Y-92965771D01*
X187094762Y-92965771D02*
X186999524Y-93013390D01*
X186999524Y-93013390D02*
X186951905Y-93061009D01*
X186951905Y-93061009D02*
X186904286Y-93156247D01*
X182618095Y-93904819D02*
X182618095Y-92904819D01*
X183189523Y-93904819D02*
X182760952Y-93333390D01*
X183189523Y-92904819D02*
X182618095Y-93476247D01*
X147851905Y-93584819D02*
X147851905Y-92584819D01*
X147851905Y-92584819D02*
X148090000Y-92584819D01*
X148090000Y-92584819D02*
X148232857Y-92632438D01*
X148232857Y-92632438D02*
X148328095Y-92727676D01*
X148328095Y-92727676D02*
X148375714Y-92822914D01*
X148375714Y-92822914D02*
X148423333Y-93013390D01*
X148423333Y-93013390D02*
X148423333Y-93156247D01*
X148423333Y-93156247D02*
X148375714Y-93346723D01*
X148375714Y-93346723D02*
X148328095Y-93441961D01*
X148328095Y-93441961D02*
X148232857Y-93537200D01*
X148232857Y-93537200D02*
X148090000Y-93584819D01*
X148090000Y-93584819D02*
X147851905Y-93584819D01*
X149280476Y-92918152D02*
X149280476Y-93584819D01*
X149042381Y-92537200D02*
X148804286Y-93251485D01*
X148804286Y-93251485D02*
X149423333Y-93251485D01*
X144518095Y-93904819D02*
X144518095Y-92904819D01*
X145089523Y-93904819D02*
X144660952Y-93333390D01*
X145089523Y-92904819D02*
X144518095Y-93476247D01*
X166901905Y-93584819D02*
X166901905Y-92584819D01*
X166901905Y-92584819D02*
X167140000Y-92584819D01*
X167140000Y-92584819D02*
X167282857Y-92632438D01*
X167282857Y-92632438D02*
X167378095Y-92727676D01*
X167378095Y-92727676D02*
X167425714Y-92822914D01*
X167425714Y-92822914D02*
X167473333Y-93013390D01*
X167473333Y-93013390D02*
X167473333Y-93156247D01*
X167473333Y-93156247D02*
X167425714Y-93346723D01*
X167425714Y-93346723D02*
X167378095Y-93441961D01*
X167378095Y-93441961D02*
X167282857Y-93537200D01*
X167282857Y-93537200D02*
X167140000Y-93584819D01*
X167140000Y-93584819D02*
X166901905Y-93584819D01*
X168378095Y-92584819D02*
X167901905Y-92584819D01*
X167901905Y-92584819D02*
X167854286Y-93061009D01*
X167854286Y-93061009D02*
X167901905Y-93013390D01*
X167901905Y-93013390D02*
X167997143Y-92965771D01*
X167997143Y-92965771D02*
X168235238Y-92965771D01*
X168235238Y-92965771D02*
X168330476Y-93013390D01*
X168330476Y-93013390D02*
X168378095Y-93061009D01*
X168378095Y-93061009D02*
X168425714Y-93156247D01*
X168425714Y-93156247D02*
X168425714Y-93394342D01*
X168425714Y-93394342D02*
X168378095Y-93489580D01*
X168378095Y-93489580D02*
X168330476Y-93537200D01*
X168330476Y-93537200D02*
X168235238Y-93584819D01*
X168235238Y-93584819D02*
X167997143Y-93584819D01*
X167997143Y-93584819D02*
X167901905Y-93537200D01*
X167901905Y-93537200D02*
X167854286Y-93489580D01*
X163568095Y-93904819D02*
X163568095Y-92904819D01*
X164139523Y-93904819D02*
X163710952Y-93333390D01*
X164139523Y-92904819D02*
X163568095Y-93476247D01*
X145994819Y-56833333D02*
X146709104Y-56833333D01*
X146709104Y-56833333D02*
X146851961Y-56880952D01*
X146851961Y-56880952D02*
X146947200Y-56976190D01*
X146947200Y-56976190D02*
X146994819Y-57119047D01*
X146994819Y-57119047D02*
X146994819Y-57214285D01*
X146994819Y-55833333D02*
X146994819Y-56404761D01*
X146994819Y-56119047D02*
X145994819Y-56119047D01*
X145994819Y-56119047D02*
X146137676Y-56214285D01*
X146137676Y-56214285D02*
X146232914Y-56309523D01*
X146232914Y-56309523D02*
X146280533Y-56404761D01*
X185951905Y-74534819D02*
X185951905Y-73534819D01*
X185951905Y-73534819D02*
X186190000Y-73534819D01*
X186190000Y-73534819D02*
X186332857Y-73582438D01*
X186332857Y-73582438D02*
X186428095Y-73677676D01*
X186428095Y-73677676D02*
X186475714Y-73772914D01*
X186475714Y-73772914D02*
X186523333Y-73963390D01*
X186523333Y-73963390D02*
X186523333Y-74106247D01*
X186523333Y-74106247D02*
X186475714Y-74296723D01*
X186475714Y-74296723D02*
X186428095Y-74391961D01*
X186428095Y-74391961D02*
X186332857Y-74487200D01*
X186332857Y-74487200D02*
X186190000Y-74534819D01*
X186190000Y-74534819D02*
X185951905Y-74534819D01*
X186856667Y-73534819D02*
X187475714Y-73534819D01*
X187475714Y-73534819D02*
X187142381Y-73915771D01*
X187142381Y-73915771D02*
X187285238Y-73915771D01*
X187285238Y-73915771D02*
X187380476Y-73963390D01*
X187380476Y-73963390D02*
X187428095Y-74011009D01*
X187428095Y-74011009D02*
X187475714Y-74106247D01*
X187475714Y-74106247D02*
X187475714Y-74344342D01*
X187475714Y-74344342D02*
X187428095Y-74439580D01*
X187428095Y-74439580D02*
X187380476Y-74487200D01*
X187380476Y-74487200D02*
X187285238Y-74534819D01*
X187285238Y-74534819D02*
X186999524Y-74534819D01*
X186999524Y-74534819D02*
X186904286Y-74487200D01*
X186904286Y-74487200D02*
X186856667Y-74439580D01*
X182618095Y-74854819D02*
X182618095Y-73854819D01*
X183189523Y-74854819D02*
X182760952Y-74283390D01*
X183189523Y-73854819D02*
X182618095Y-74426247D01*
X166901905Y-74534819D02*
X166901905Y-73534819D01*
X166901905Y-73534819D02*
X167140000Y-73534819D01*
X167140000Y-73534819D02*
X167282857Y-73582438D01*
X167282857Y-73582438D02*
X167378095Y-73677676D01*
X167378095Y-73677676D02*
X167425714Y-73772914D01*
X167425714Y-73772914D02*
X167473333Y-73963390D01*
X167473333Y-73963390D02*
X167473333Y-74106247D01*
X167473333Y-74106247D02*
X167425714Y-74296723D01*
X167425714Y-74296723D02*
X167378095Y-74391961D01*
X167378095Y-74391961D02*
X167282857Y-74487200D01*
X167282857Y-74487200D02*
X167140000Y-74534819D01*
X167140000Y-74534819D02*
X166901905Y-74534819D01*
X167854286Y-73630057D02*
X167901905Y-73582438D01*
X167901905Y-73582438D02*
X167997143Y-73534819D01*
X167997143Y-73534819D02*
X168235238Y-73534819D01*
X168235238Y-73534819D02*
X168330476Y-73582438D01*
X168330476Y-73582438D02*
X168378095Y-73630057D01*
X168378095Y-73630057D02*
X168425714Y-73725295D01*
X168425714Y-73725295D02*
X168425714Y-73820533D01*
X168425714Y-73820533D02*
X168378095Y-73963390D01*
X168378095Y-73963390D02*
X167806667Y-74534819D01*
X167806667Y-74534819D02*
X168425714Y-74534819D01*
X163568095Y-74854819D02*
X163568095Y-73854819D01*
X164139523Y-74854819D02*
X163710952Y-74283390D01*
X164139523Y-73854819D02*
X163568095Y-74426247D01*
X185951905Y-112634819D02*
X185951905Y-111634819D01*
X185951905Y-111634819D02*
X186190000Y-111634819D01*
X186190000Y-111634819D02*
X186332857Y-111682438D01*
X186332857Y-111682438D02*
X186428095Y-111777676D01*
X186428095Y-111777676D02*
X186475714Y-111872914D01*
X186475714Y-111872914D02*
X186523333Y-112063390D01*
X186523333Y-112063390D02*
X186523333Y-112206247D01*
X186523333Y-112206247D02*
X186475714Y-112396723D01*
X186475714Y-112396723D02*
X186428095Y-112491961D01*
X186428095Y-112491961D02*
X186332857Y-112587200D01*
X186332857Y-112587200D02*
X186190000Y-112634819D01*
X186190000Y-112634819D02*
X185951905Y-112634819D01*
X186999524Y-112634819D02*
X187190000Y-112634819D01*
X187190000Y-112634819D02*
X187285238Y-112587200D01*
X187285238Y-112587200D02*
X187332857Y-112539580D01*
X187332857Y-112539580D02*
X187428095Y-112396723D01*
X187428095Y-112396723D02*
X187475714Y-112206247D01*
X187475714Y-112206247D02*
X187475714Y-111825295D01*
X187475714Y-111825295D02*
X187428095Y-111730057D01*
X187428095Y-111730057D02*
X187380476Y-111682438D01*
X187380476Y-111682438D02*
X187285238Y-111634819D01*
X187285238Y-111634819D02*
X187094762Y-111634819D01*
X187094762Y-111634819D02*
X186999524Y-111682438D01*
X186999524Y-111682438D02*
X186951905Y-111730057D01*
X186951905Y-111730057D02*
X186904286Y-111825295D01*
X186904286Y-111825295D02*
X186904286Y-112063390D01*
X186904286Y-112063390D02*
X186951905Y-112158628D01*
X186951905Y-112158628D02*
X186999524Y-112206247D01*
X186999524Y-112206247D02*
X187094762Y-112253866D01*
X187094762Y-112253866D02*
X187285238Y-112253866D01*
X187285238Y-112253866D02*
X187380476Y-112206247D01*
X187380476Y-112206247D02*
X187428095Y-112158628D01*
X187428095Y-112158628D02*
X187475714Y-112063390D01*
X182618095Y-112954819D02*
X182618095Y-111954819D01*
X183189523Y-112954819D02*
X182760952Y-112383390D01*
X183189523Y-111954819D02*
X182618095Y-112526247D01*
X166901905Y-112634819D02*
X166901905Y-111634819D01*
X166901905Y-111634819D02*
X167140000Y-111634819D01*
X167140000Y-111634819D02*
X167282857Y-111682438D01*
X167282857Y-111682438D02*
X167378095Y-111777676D01*
X167378095Y-111777676D02*
X167425714Y-111872914D01*
X167425714Y-111872914D02*
X167473333Y-112063390D01*
X167473333Y-112063390D02*
X167473333Y-112206247D01*
X167473333Y-112206247D02*
X167425714Y-112396723D01*
X167425714Y-112396723D02*
X167378095Y-112491961D01*
X167378095Y-112491961D02*
X167282857Y-112587200D01*
X167282857Y-112587200D02*
X167140000Y-112634819D01*
X167140000Y-112634819D02*
X166901905Y-112634819D01*
X168044762Y-112063390D02*
X167949524Y-112015771D01*
X167949524Y-112015771D02*
X167901905Y-111968152D01*
X167901905Y-111968152D02*
X167854286Y-111872914D01*
X167854286Y-111872914D02*
X167854286Y-111825295D01*
X167854286Y-111825295D02*
X167901905Y-111730057D01*
X167901905Y-111730057D02*
X167949524Y-111682438D01*
X167949524Y-111682438D02*
X168044762Y-111634819D01*
X168044762Y-111634819D02*
X168235238Y-111634819D01*
X168235238Y-111634819D02*
X168330476Y-111682438D01*
X168330476Y-111682438D02*
X168378095Y-111730057D01*
X168378095Y-111730057D02*
X168425714Y-111825295D01*
X168425714Y-111825295D02*
X168425714Y-111872914D01*
X168425714Y-111872914D02*
X168378095Y-111968152D01*
X168378095Y-111968152D02*
X168330476Y-112015771D01*
X168330476Y-112015771D02*
X168235238Y-112063390D01*
X168235238Y-112063390D02*
X168044762Y-112063390D01*
X168044762Y-112063390D02*
X167949524Y-112111009D01*
X167949524Y-112111009D02*
X167901905Y-112158628D01*
X167901905Y-112158628D02*
X167854286Y-112253866D01*
X167854286Y-112253866D02*
X167854286Y-112444342D01*
X167854286Y-112444342D02*
X167901905Y-112539580D01*
X167901905Y-112539580D02*
X167949524Y-112587200D01*
X167949524Y-112587200D02*
X168044762Y-112634819D01*
X168044762Y-112634819D02*
X168235238Y-112634819D01*
X168235238Y-112634819D02*
X168330476Y-112587200D01*
X168330476Y-112587200D02*
X168378095Y-112539580D01*
X168378095Y-112539580D02*
X168425714Y-112444342D01*
X168425714Y-112444342D02*
X168425714Y-112253866D01*
X168425714Y-112253866D02*
X168378095Y-112158628D01*
X168378095Y-112158628D02*
X168330476Y-112111009D01*
X168330476Y-112111009D02*
X168235238Y-112063390D01*
X163568095Y-112954819D02*
X163568095Y-111954819D01*
X164139523Y-112954819D02*
X163710952Y-112383390D01*
X164139523Y-111954819D02*
X163568095Y-112526247D01*
%TO.C,U1*%
D12*
X163825000Y-47200000D02*
G75*
G02*
X163321000Y-47200000I-252000J0D01*
G01*
X163321000Y-47200000D02*
G75*
G02*
X163825000Y-47200000I252000J0D01*
G01*
X162682000Y-46320000D02*
G75*
G02*
X162178000Y-46320000I-252000J0D01*
G01*
X162178000Y-46320000D02*
G75*
G02*
X162682000Y-46320000I252000J0D01*
G01*
D13*
X180270000Y-65129000D02*
G75*
G02*
X178365000Y-67034000I-1905001J1D01*
G01*
X178365000Y-46079000D02*
G75*
G02*
X180270000Y-47984000I0J-1905000D01*
G01*
X175384000Y-44669000D02*
G75*
G02*
X175884000Y-45169000I0J-500000D01*
G01*
X166888728Y-45168728D02*
G75*
G02*
X167388728Y-44669028I499972J-272D01*
G01*
X164395000Y-67034000D02*
G75*
G02*
X162490000Y-65129000I1J1905001D01*
G01*
X162490000Y-47984000D02*
G75*
G02*
X164395000Y-46079000I1905000J0D01*
G01*
X180270000Y-65129000D02*
X180270000Y-47984000D01*
X178365000Y-46079000D02*
X164395000Y-46079000D01*
D14*
X178365000Y-46079000D02*
X164395000Y-46079000D01*
D13*
X175884000Y-45169000D02*
X175884000Y-46079000D01*
X167388728Y-44669000D02*
X175384000Y-44669000D01*
X166885000Y-46079000D02*
X166888728Y-45168728D01*
X164395000Y-67034000D02*
X178365000Y-67034000D01*
X162490000Y-65129000D02*
X162490000Y-47984000D01*
%TO.C,SW10*%
D15*
X193250000Y-59000000D02*
G75*
G02*
X187250000Y-59000000I-3000000J0D01*
G01*
X187250000Y-59000000D02*
G75*
G02*
X193250000Y-59000000I3000000J0D01*
G01*
X196350000Y-64900000D02*
X192250000Y-64900000D01*
X196350000Y-62500000D02*
X196350000Y-64900000D01*
X196350000Y-57700000D02*
X196350000Y-60300000D01*
X196350000Y-53100000D02*
X196350000Y-55500000D01*
X192250000Y-53100000D02*
X196350000Y-53100000D01*
X190250000Y-58500000D02*
X190250000Y-59500000D01*
X189750000Y-59000000D02*
X190750000Y-59000000D01*
X188250000Y-64900000D02*
X184150000Y-64900000D01*
X188250000Y-53100000D02*
X184150000Y-53100000D01*
X184150000Y-53100000D02*
X184150000Y-64900000D01*
X183050000Y-54900000D02*
X182750000Y-55200000D01*
X182750000Y-55200000D02*
X182450000Y-54900000D01*
X182450000Y-54900000D02*
X183050000Y-54900000D01*
%TO.C,D1*%
X146470000Y-75080000D02*
X150710000Y-75080000D01*
X150710000Y-77320000D01*
X146470000Y-77320000D01*
X146470000Y-75080000D01*
X151360000Y-76200000D02*
X150710000Y-76200000D01*
X147310000Y-75080000D02*
X147310000Y-77320000D01*
X147190000Y-75080000D02*
X147190000Y-77320000D01*
X147070000Y-75080000D02*
X147070000Y-77320000D01*
X145820000Y-76200000D02*
X146470000Y-76200000D01*
%TO.C,SW1*%
D11*
X159400000Y-82200000D02*
X159400000Y-83200000D01*
X159400000Y-69200000D02*
X159400000Y-70200000D01*
X159400000Y-69200000D02*
X158400000Y-69200000D01*
X158400000Y-83200000D02*
X159400000Y-83200000D01*
X146400000Y-69200000D02*
X145400000Y-69200000D01*
X145400000Y-83200000D02*
X146400000Y-83200000D01*
X145400000Y-83200000D02*
X145400000Y-82200000D01*
X145400000Y-70200000D02*
X145400000Y-69200000D01*
%TO.C,SW6*%
X183500000Y-89250000D02*
X183500000Y-88250000D01*
X183500000Y-102250000D02*
X183500000Y-101250000D01*
X183500000Y-102250000D02*
X184500000Y-102250000D01*
X184500000Y-88250000D02*
X183500000Y-88250000D01*
X196500000Y-102250000D02*
X197500000Y-102250000D01*
X197500000Y-88250000D02*
X196500000Y-88250000D01*
X197500000Y-88250000D02*
X197500000Y-89250000D01*
X197500000Y-101250000D02*
X197500000Y-102250000D01*
%TO.C,SW3*%
X183500000Y-70200000D02*
X183500000Y-69200000D01*
X183500000Y-83200000D02*
X183500000Y-82200000D01*
X183500000Y-83200000D02*
X184500000Y-83200000D01*
X184500000Y-69200000D02*
X183500000Y-69200000D01*
X196500000Y-83200000D02*
X197500000Y-83200000D01*
X197500000Y-69200000D02*
X196500000Y-69200000D01*
X197500000Y-69200000D02*
X197500000Y-70200000D01*
X197500000Y-82200000D02*
X197500000Y-83200000D01*
%TO.C,SW9*%
X183500000Y-108300000D02*
X183500000Y-107300000D01*
X183500000Y-121300000D02*
X183500000Y-120300000D01*
X183500000Y-121300000D02*
X184500000Y-121300000D01*
X184500000Y-107300000D02*
X183500000Y-107300000D01*
X196500000Y-121300000D02*
X197500000Y-121300000D01*
X197500000Y-107300000D02*
X196500000Y-107300000D01*
X197500000Y-107300000D02*
X197500000Y-108300000D01*
X197500000Y-120300000D02*
X197500000Y-121300000D01*
%TO.C,D7*%
D15*
X145820000Y-114300000D02*
X146470000Y-114300000D01*
X147070000Y-113180000D02*
X147070000Y-115420000D01*
X147190000Y-113180000D02*
X147190000Y-115420000D01*
X147310000Y-113180000D02*
X147310000Y-115420000D01*
X151360000Y-114300000D02*
X150710000Y-114300000D01*
X146470000Y-113180000D02*
X150710000Y-113180000D01*
X150710000Y-115420000D01*
X146470000Y-115420000D01*
X146470000Y-113180000D01*
%TO.C,D6*%
X183920000Y-95250000D02*
X184570000Y-95250000D01*
X185170000Y-94130000D02*
X185170000Y-96370000D01*
X185290000Y-94130000D02*
X185290000Y-96370000D01*
X185410000Y-94130000D02*
X185410000Y-96370000D01*
X189460000Y-95250000D02*
X188810000Y-95250000D01*
X184570000Y-94130000D02*
X188810000Y-94130000D01*
X188810000Y-96370000D01*
X184570000Y-96370000D01*
X184570000Y-94130000D01*
%TO.C,D4*%
X145820000Y-95250000D02*
X146470000Y-95250000D01*
X147070000Y-94130000D02*
X147070000Y-96370000D01*
X147190000Y-94130000D02*
X147190000Y-96370000D01*
X147310000Y-94130000D02*
X147310000Y-96370000D01*
X151360000Y-95250000D02*
X150710000Y-95250000D01*
X146470000Y-94130000D02*
X150710000Y-94130000D01*
X150710000Y-96370000D01*
X146470000Y-96370000D01*
X146470000Y-94130000D01*
%TO.C,SW4*%
D11*
X145400000Y-89250000D02*
X145400000Y-88250000D01*
X145400000Y-102250000D02*
X145400000Y-101250000D01*
X145400000Y-102250000D02*
X146400000Y-102250000D01*
X146400000Y-88250000D02*
X145400000Y-88250000D01*
X158400000Y-102250000D02*
X159400000Y-102250000D01*
X159400000Y-88250000D02*
X158400000Y-88250000D01*
X159400000Y-88250000D02*
X159400000Y-89250000D01*
X159400000Y-101250000D02*
X159400000Y-102250000D01*
%TO.C,SW5*%
X164450000Y-89250000D02*
X164450000Y-88250000D01*
X164450000Y-102250000D02*
X164450000Y-101250000D01*
X164450000Y-102250000D02*
X165450000Y-102250000D01*
X165450000Y-88250000D02*
X164450000Y-88250000D01*
X177450000Y-102250000D02*
X178450000Y-102250000D01*
X178450000Y-88250000D02*
X177450000Y-88250000D01*
X178450000Y-88250000D02*
X178450000Y-89250000D01*
X178450000Y-101250000D02*
X178450000Y-102250000D01*
%TO.C,SW2*%
X178450000Y-82200000D02*
X178450000Y-83200000D01*
X178450000Y-69200000D02*
X178450000Y-70200000D01*
X178450000Y-69200000D02*
X177450000Y-69200000D01*
X177450000Y-83200000D02*
X178450000Y-83200000D01*
X165450000Y-69200000D02*
X164450000Y-69200000D01*
X164450000Y-83200000D02*
X165450000Y-83200000D01*
X164450000Y-83200000D02*
X164450000Y-82200000D01*
X164450000Y-70200000D02*
X164450000Y-69200000D01*
%TO.C,SW8*%
X164450000Y-108300000D02*
X164450000Y-107300000D01*
X164450000Y-121300000D02*
X164450000Y-120300000D01*
X164450000Y-121300000D02*
X165450000Y-121300000D01*
X165450000Y-107300000D02*
X164450000Y-107300000D01*
X177450000Y-121300000D02*
X178450000Y-121300000D01*
X178450000Y-107300000D02*
X177450000Y-107300000D01*
X178450000Y-107300000D02*
X178450000Y-108300000D01*
X178450000Y-120300000D02*
X178450000Y-121300000D01*
%TO.C,D5*%
D15*
X164870000Y-95250000D02*
X165520000Y-95250000D01*
X166120000Y-94130000D02*
X166120000Y-96370000D01*
X166240000Y-94130000D02*
X166240000Y-96370000D01*
X166360000Y-94130000D02*
X166360000Y-96370000D01*
X170410000Y-95250000D02*
X169760000Y-95250000D01*
X165520000Y-94130000D02*
X169760000Y-94130000D01*
X169760000Y-96370000D01*
X165520000Y-96370000D01*
X165520000Y-94130000D01*
%TO.C,J1*%
X147540000Y-57880000D02*
X147540000Y-56500000D01*
X148920000Y-57880000D02*
X147540000Y-57880000D01*
X150190000Y-55120000D02*
X157920000Y-55120000D01*
X150190000Y-57880000D02*
X150190000Y-55120000D01*
X150190000Y-57880000D02*
X157920000Y-57880000D01*
X157920000Y-57880000D02*
X157920000Y-55120000D01*
%TO.C,D3*%
X183920000Y-76200000D02*
X184570000Y-76200000D01*
X185170000Y-75080000D02*
X185170000Y-77320000D01*
X185290000Y-75080000D02*
X185290000Y-77320000D01*
X185410000Y-75080000D02*
X185410000Y-77320000D01*
X189460000Y-76200000D02*
X188810000Y-76200000D01*
X184570000Y-75080000D02*
X188810000Y-75080000D01*
X188810000Y-77320000D01*
X184570000Y-77320000D01*
X184570000Y-75080000D01*
%TO.C,SW7*%
D11*
X145400000Y-108300000D02*
X145400000Y-107300000D01*
X145400000Y-121300000D02*
X145400000Y-120300000D01*
X145400000Y-121300000D02*
X146400000Y-121300000D01*
X146400000Y-107300000D02*
X145400000Y-107300000D01*
X158400000Y-121300000D02*
X159400000Y-121300000D01*
X159400000Y-107300000D02*
X158400000Y-107300000D01*
X159400000Y-107300000D02*
X159400000Y-108300000D01*
X159400000Y-120300000D02*
X159400000Y-121300000D01*
%TO.C,D2*%
D15*
X164870000Y-76200000D02*
X165520000Y-76200000D01*
X166120000Y-75080000D02*
X166120000Y-77320000D01*
X166240000Y-75080000D02*
X166240000Y-77320000D01*
X166360000Y-75080000D02*
X166360000Y-77320000D01*
X170410000Y-76200000D02*
X169760000Y-76200000D01*
X165520000Y-75080000D02*
X169760000Y-75080000D01*
X169760000Y-77320000D01*
X165520000Y-77320000D01*
X165520000Y-75080000D01*
%TO.C,D9*%
X183920000Y-114300000D02*
X184570000Y-114300000D01*
X185170000Y-113180000D02*
X185170000Y-115420000D01*
X185290000Y-113180000D02*
X185290000Y-115420000D01*
X185410000Y-113180000D02*
X185410000Y-115420000D01*
X189460000Y-114300000D02*
X188810000Y-114300000D01*
X184570000Y-113180000D02*
X188810000Y-113180000D01*
X188810000Y-115420000D01*
X184570000Y-115420000D01*
X184570000Y-113180000D01*
%TO.C,D8*%
X164870000Y-114300000D02*
X165520000Y-114300000D01*
X166120000Y-113180000D02*
X166120000Y-115420000D01*
X166240000Y-113180000D02*
X166240000Y-115420000D01*
X166360000Y-113180000D02*
X166360000Y-115420000D01*
X170410000Y-114300000D02*
X169760000Y-114300000D01*
X165520000Y-113180000D02*
X169760000Y-113180000D01*
X169760000Y-115420000D01*
X165520000Y-115420000D01*
X165520000Y-113180000D01*
%TD*%
M02*
