%TF.GenerationSoftware,KiCad,Pcbnew,10.0.3*%
%TF.CreationDate,2026-06-09T14:52:23+09:00*%
%TF.ProjectId,hackpad,6861636b-7061-4642-9e6b-696361645f70,rev?*%
%TF.SameCoordinates,Original*%
%TF.FileFunction,Copper,L2,Bot*%
%TF.FilePolarity,Positive*%
%FSLAX46Y46*%
G04 Gerber Fmt 4.6, Leading zero omitted, Abs format (unit mm)*
G04 Created by KiCad (PCBNEW 10.0.3) date 2026-06-09 14:52:23*
%MOMM*%
%LPD*%
G01*
G04 APERTURE LIST*
G04 Aperture macros list*
%AMRoundRect*
0 Rectangle with rounded corners*
0 $1 Rounding radius*
0 $2 $3 $4 $5 $6 $7 $8 $9 X,Y pos of 4 corners*
0 Add a 4 corners polygon primitive as box body*
4,1,4,$2,$3,$4,$5,$6,$7,$8,$9,$2,$3,0*
0 Add four circle primitives for the rounded corners*
1,1,$1+$1,$2,$3*
1,1,$1+$1,$4,$5*
1,1,$1+$1,$6,$7*
1,1,$1+$1,$8,$9*
0 Add four rect primitives between the rounded corners*
20,1,$1+$1,$2,$3,$4,$5,0*
20,1,$1+$1,$4,$5,$6,$7,0*
20,1,$1+$1,$6,$7,$8,$9,0*
20,1,$1+$1,$8,$9,$2,$3,0*%
G04 Aperture macros list end*
%TA.AperFunction,ComponentPad*%
%ADD10C,1.524000*%
%TD*%
%TA.AperFunction,ComponentPad*%
%ADD11C,2.000000*%
%TD*%
%TA.AperFunction,ComponentPad*%
%ADD12R,3.200000X2.000000*%
%TD*%
%TA.AperFunction,ComponentPad*%
%ADD13R,2.000000X2.000000*%
%TD*%
%TA.AperFunction,ComponentPad*%
%ADD14C,1.600000*%
%TD*%
%TA.AperFunction,ComponentPad*%
%ADD15RoundRect,0.250000X-0.550000X-0.550000X0.550000X-0.550000X0.550000X0.550000X-0.550000X0.550000X0*%
%TD*%
%TA.AperFunction,SMDPad,CuDef*%
%ADD16R,2.550000X2.500000*%
%TD*%
%TA.AperFunction,ComponentPad*%
%ADD17R,1.700000X1.700000*%
%TD*%
%TA.AperFunction,ComponentPad*%
%ADD18C,1.700000*%
%TD*%
%TA.AperFunction,Conductor*%
%ADD19C,0.250000*%
%TD*%
G04 APERTURE END LIST*
D10*
%TO.P,U1,14,VBUS_14*%
%TO.N,unconnected-(U1-VBUS-Pad14)_1*%
X179000000Y-49000000D03*
%TO.P,U1,13,GND_13*%
%TO.N,GND*%
X179000000Y-51540000D03*
%TO.P,U1,12,3V3_12*%
%TO.N,+3V3*%
X179000000Y-54080000D03*
%TO.P,U1,11,P3_D10_MOSI_11*%
%TO.N,/ENC_SW*%
X179000000Y-56620000D03*
%TO.P,U1,10,P4_D9_MISO_10*%
%TO.N,/ENC_B*%
X179000000Y-59160000D03*
%TO.P,U1,9,P2_D8_SCK_9*%
%TO.N,/ENC_A*%
X179000000Y-61700000D03*
%TO.P,U1,8,P1_D7_RX_8*%
%TO.N,/ROW2*%
X179000000Y-64240000D03*
%TO.P,U1,7,P0_D6_TX_7*%
%TO.N,/ROW1*%
X163760000Y-64240000D03*
%TO.P,U1,6,P7_SCL_D5_6*%
%TO.N,/SCL*%
X163760000Y-61700000D03*
%TO.P,U1,5,P6_SDA_D4_5*%
%TO.N,/SDA*%
X163760000Y-59160000D03*
%TO.P,U1,4,P29_A3_D3_4*%
%TO.N,/ROW0*%
X163760000Y-56620000D03*
%TO.P,U1,3,P28_A2_D2_3*%
%TO.N,/COL2*%
X163760000Y-54080000D03*
%TO.P,U1,2,P27_A1_D1_2*%
%TO.N,/COL1*%
X163760000Y-51540000D03*
%TO.P,U1,1,P26_A0_D0_1*%
%TO.N,/COL0*%
X163760000Y-49000000D03*
%TD*%
D11*
%TO.P,SW10,S2,S2_S2*%
%TO.N,GND*%
X197250000Y-56500000D03*
%TO.P,SW10,S1,S1_S1*%
%TO.N,/ENC_SW*%
X197250000Y-61500000D03*
D12*
%TO.P,SW10,MP*%
%TO.N,N/C*%
X190250000Y-64600000D03*
X190250000Y-53400000D03*
D11*
%TO.P,SW10,C,C_C*%
%TO.N,GND*%
X182750000Y-59000000D03*
%TO.P,SW10,B,B_B*%
%TO.N,/ENC_B*%
X182750000Y-61500000D03*
D13*
%TO.P,SW10,A,A_A*%
%TO.N,/ENC_A*%
X182750000Y-56500000D03*
%TD*%
D14*
%TO.P,D1,2,A_2*%
%TO.N,Net-(D1-A)*%
X152400000Y-76200000D03*
D15*
%TO.P,D1,1,K_1*%
%TO.N,/ROW0*%
X144780000Y-76200000D03*
%TD*%
D16*
%TO.P,SW1,2,2_2*%
%TO.N,Net-(D1-A)*%
X144840000Y-73660000D03*
%TO.P,SW1,1,1_1*%
%TO.N,/COL0*%
X158690000Y-71120000D03*
%TD*%
%TO.P,SW6,1,1_1*%
%TO.N,/COL2*%
X196790000Y-90170000D03*
%TO.P,SW6,2,2_2*%
%TO.N,Net-(D6-A)*%
X182940000Y-92710000D03*
%TD*%
%TO.P,SW3,1,1_1*%
%TO.N,/COL2*%
X196790000Y-71120000D03*
%TO.P,SW3,2,2_2*%
%TO.N,Net-(D3-A)*%
X182940000Y-73660000D03*
%TD*%
%TO.P,SW9,1,1_1*%
%TO.N,/COL2*%
X196790000Y-109220000D03*
%TO.P,SW9,2,2_2*%
%TO.N,Net-(D9-A)*%
X182940000Y-111760000D03*
%TD*%
D15*
%TO.P,D7,1,K_1*%
%TO.N,/ROW2*%
X144780000Y-114300000D03*
D14*
%TO.P,D7,2,A_2*%
%TO.N,Net-(D7-A)*%
X152400000Y-114300000D03*
%TD*%
D15*
%TO.P,D6,1,K_1*%
%TO.N,/ROW1*%
X182880000Y-95250000D03*
D14*
%TO.P,D6,2,A_2*%
%TO.N,Net-(D6-A)*%
X190500000Y-95250000D03*
%TD*%
D15*
%TO.P,D4,1,K_1*%
%TO.N,/ROW1*%
X144780000Y-95250000D03*
D14*
%TO.P,D4,2,A_2*%
%TO.N,Net-(D4-A)*%
X152400000Y-95250000D03*
%TD*%
D16*
%TO.P,SW4,1,1_1*%
%TO.N,/COL0*%
X158690000Y-90170000D03*
%TO.P,SW4,2,2_2*%
%TO.N,Net-(D4-A)*%
X144840000Y-92710000D03*
%TD*%
%TO.P,SW5,1,1_1*%
%TO.N,/COL1*%
X177740000Y-90170000D03*
%TO.P,SW5,2,2_2*%
%TO.N,Net-(D5-A)*%
X163890000Y-92710000D03*
%TD*%
%TO.P,SW2,2,2_2*%
%TO.N,Net-(D2-A)*%
X163890000Y-73660000D03*
%TO.P,SW2,1,1_1*%
%TO.N,/COL1*%
X177740000Y-71120000D03*
%TD*%
%TO.P,SW8,1,1_1*%
%TO.N,/COL1*%
X177740000Y-109220000D03*
%TO.P,SW8,2,2_2*%
%TO.N,Net-(D8-A)*%
X163890000Y-111760000D03*
%TD*%
D15*
%TO.P,D5,1,K_1*%
%TO.N,/ROW1*%
X163830000Y-95250000D03*
D14*
%TO.P,D5,2,A_2*%
%TO.N,Net-(D5-A)*%
X171450000Y-95250000D03*
%TD*%
D17*
%TO.P,J1,1,Pin_1_1*%
%TO.N,GND*%
X148920000Y-56500000D03*
D18*
%TO.P,J1,2,Pin_2_2*%
%TO.N,+3V3*%
X151460000Y-56500000D03*
%TO.P,J1,3,Pin_3_3*%
%TO.N,/SCL*%
X154000000Y-56500000D03*
%TO.P,J1,4,Pin_4_4*%
%TO.N,/SDA*%
X156540000Y-56500000D03*
%TD*%
D15*
%TO.P,D3,1,K_1*%
%TO.N,/ROW0*%
X182880000Y-76200000D03*
D14*
%TO.P,D3,2,A_2*%
%TO.N,Net-(D3-A)*%
X190500000Y-76200000D03*
%TD*%
D16*
%TO.P,SW7,1,1_1*%
%TO.N,/COL0*%
X158690000Y-109220000D03*
%TO.P,SW7,2,2_2*%
%TO.N,Net-(D7-A)*%
X144840000Y-111760000D03*
%TD*%
D15*
%TO.P,D2,1,K_1*%
%TO.N,/ROW0*%
X163830000Y-76200000D03*
D14*
%TO.P,D2,2,A_2*%
%TO.N,Net-(D2-A)*%
X171450000Y-76200000D03*
%TD*%
D15*
%TO.P,D9,1,K_1*%
%TO.N,/ROW2*%
X182880000Y-114300000D03*
D14*
%TO.P,D9,2,A_2*%
%TO.N,Net-(D9-A)*%
X190500000Y-114300000D03*
%TD*%
D15*
%TO.P,D8,1,K_1*%
%TO.N,/ROW2*%
X163830000Y-114300000D03*
D14*
%TO.P,D8,2,A_2*%
%TO.N,Net-(D8-A)*%
X171450000Y-114300000D03*
%TD*%
%TO.N,Net-(D9-A)*%
D19*
X182940000Y-111760000D02*
X187960000Y-111760000D01*
X187960000Y-111760000D02*
X190500000Y-114300000D01*
%TO.N,Net-(D8-A)*%
X163890000Y-111760000D02*
X168910000Y-111760000D01*
X168910000Y-111760000D02*
X171450000Y-114300000D01*
%TO.N,Net-(D7-A)*%
X144840000Y-111760000D02*
X149860000Y-111760000D01*
X149860000Y-111760000D02*
X152400000Y-114300000D01*
%TO.N,Net-(D4-A)*%
X144840000Y-92710000D02*
X149860000Y-92710000D01*
X149860000Y-92710000D02*
X152400000Y-95250000D01*
%TO.N,Net-(D5-A)*%
X163890000Y-92710000D02*
X168910000Y-92710000D01*
X168910000Y-92710000D02*
X171450000Y-95250000D01*
%TO.N,Net-(D6-A)*%
X182940000Y-92710000D02*
X187960000Y-92710000D01*
X187960000Y-92710000D02*
X190500000Y-95250000D01*
%TO.N,Net-(D3-A)*%
X182940000Y-73660000D02*
X187960000Y-73660000D01*
X187960000Y-73660000D02*
X190500000Y-76200000D01*
%TO.N,Net-(D2-A)*%
X163890000Y-73660000D02*
X168910000Y-73660000D01*
X168910000Y-73660000D02*
X171450000Y-76200000D01*
%TO.N,Net-(D1-A)*%
X144840000Y-73660000D02*
X149860000Y-73660000D01*
X149860000Y-73660000D02*
X152400000Y-76200000D01*
%TO.N,/COL2*%
X163760000Y-54080000D02*
X162673000Y-52993000D01*
X162673000Y-52993000D02*
X162673000Y-51089749D01*
X162673000Y-51089749D02*
X163309749Y-50453000D01*
X196790000Y-67792749D02*
X196790000Y-71120000D01*
X163309749Y-50453000D02*
X179450251Y-50453000D01*
X179450251Y-50453000D02*
X196790000Y-67792749D01*
%TO.N,/COL1*%
X163760000Y-51540000D02*
X177740000Y-65520000D01*
X177740000Y-65520000D02*
X177740000Y-71120000D01*
%TO.N,/COL0*%
X163760000Y-49000000D02*
X158690000Y-54070000D01*
X158690000Y-54070000D02*
X158690000Y-71120000D01*
%TO.N,/COL2*%
X196790000Y-90170000D02*
X196805900Y-90185900D01*
X196805900Y-90185900D02*
X196805900Y-109204100D01*
X196805900Y-109204100D02*
X196790000Y-109220000D01*
X196790000Y-71120000D02*
X196805900Y-71135900D01*
X196805900Y-71135900D02*
X196805900Y-90154100D01*
X196805900Y-90154100D02*
X196790000Y-90170000D01*
%TO.N,/COL1*%
X177740000Y-90170000D02*
X177755900Y-90185900D01*
X177755900Y-90185900D02*
X177755900Y-109204100D01*
X177755900Y-109204100D02*
X177740000Y-109220000D01*
X177740000Y-71120000D02*
X177755900Y-71135900D01*
X177755900Y-71135900D02*
X177755900Y-90154100D01*
X177755900Y-90154100D02*
X177740000Y-90170000D01*
%TO.N,/COL0*%
X158690000Y-90170000D02*
X158705900Y-90185900D01*
X158705900Y-90185900D02*
X158705900Y-109204100D01*
X158705900Y-109204100D02*
X158690000Y-109220000D01*
X158705900Y-71135900D02*
X158705900Y-90154100D01*
X158705900Y-90154100D02*
X158690000Y-90170000D01*
X158690000Y-71120000D02*
X158705900Y-71135900D01*
%TD*%
M02*
